<?xml version="1.0" standalone="no"?>
<!DOCTYPE svg PUBLIC "-//W3C//DTD SVG 20010904//EN"
 "http://www.w3.org/TR/2001/REC-SVG-20010904/DTD/svg10.dtd">
<svg version="1.0" xmlns="http://www.w3.org/2000/svg"
width="38.000000pt" height="38.000000pt" viewBox="0 0 1354.55 1254.73"
 preserveAspectRatio="xMidYMid meet">
<!-- 
<svg id="Ebene_1" data-name="Ebene 1" xmlns="http://www.w3.org/2000/svg" xmlns:xlink="http://www.w3.org/1999/xlink" viewBox="0 0 1354.55 1254.73. 172.000000 172.000000">
-->  
<defs>
    <style>.cls-1{fill:url(#Unbenannter_Verlauf_86);}.cls-2{fill:url(#Unbenannter_Verlauf_70);}.cls-3{fill:url(#Unbenannter_Verlauf_102);}.cls-4{fill:url(#Unbenannter_Verlauf_177);}.cls-5{fill:url(#Unbenannter_Verlauf_166);}.cls-6{fill:url(#Unbenannter_Verlauf_148);}.cls-7{fill:url(#Unbenannter_Verlauf_190);}.cls-8{fill:url(#Unbenannter_Verlauf_131);}.cls-9{fill:url(#Unbenannter_Verlauf_116);}.cls-10{fill:url(#Unbenannter_Verlauf_54);}.cls-11{fill:#fff;}.cls-12,.cls-17{fill:#eb5e3c;}.cls-13,.cls-15{fill:none;stroke-linecap:round;stroke-miterlimit:10;}.cls-13{stroke:#fff;stroke-width:6px;}.cls-14{fill:url(#Unbenannter_Verlauf_35);}.cls-15{stroke-width:3px;stroke:url(#Unbenannter_Verlauf_15);}.cls-16{font-size:351.51px;fill:#cdcccc;font-family:VladimirScript, Vladimir Script;}.cls-17{font-size:134.21px;font-family:LithosPro-Black, Lithos Pro;font-weight:800;}
    </style>
    <linearGradient id="Unbenannter_Verlauf_86" x1="194.04" y1="1104.31" x2="325.56" y2="1033.95" gradientUnits="userSpaceOnUse"><stop offset="0" stop-color="#b9b8b8"/>
      <stop offset="0.46" stop-color="#ada7b5"/>
      <stop offset="0.8" stop-color="#fff"/>
      <stop offset="0.99" stop-color="#fff" stop-opacity="0.1"/>
    </linearGradient>
    <linearGradient id="Unbenannter_Verlauf_70" x1="144.03" y1="1252.25" x2="411.26" y2="1128.94" gradientUnits="userSpaceOnUse">
      <stop offset="0" stop-color="#cfcece"/>
      <stop offset="0.46" stop-color="#b1abb8"/>
      <stop offset="0.8" stop-color="#fff"/>
      <stop offset="0.99" stop-color="#fff" stop-opacity="0.1"/>
    </linearGradient>
    <linearGradient id="Unbenannter_Verlauf_102" x1="23.96" y1="1122.27" x2="264.81" y2="1005.93" gradientUnits="userSpaceOnUse">
      <stop offset="0" stop-color="#bdbcbc"/>
      <stop offset="0.46" stop-color="#958d9f"/>
      <stop offset="0.8" stop-color="#fff"/>
      <stop offset="0.99" stop-color="#fff" stop-opacity="0.1"/>
    </linearGradient>
    <linearGradient id="Unbenannter_Verlauf_177" x1="1374.28" y1="334.67" x2="1094.15" y2="469.98" gradientUnits="userSpaceOnUse">
      <stop offset="0" stop-color="#e3e6f2"/>
      <stop offset="0.46" stop-color="#e3e0e6"/>
      <stop offset="0.8" stop-color="#fff"/>
      <stop offset="0.99" stop-color="#1a1731" stop-opacity="0.1"/>
    </linearGradient>
    <linearGradient id="Unbenannter_Verlauf_166" x1="1171.21" y1="391.2" x2="1039.7" y2="461.55" gradientUnits="userSpaceOnUse">
      <stop offset="0" stop-color="#a8a8a7"/>
      <stop offset="0.46" stop-color="#beb8c4"/>
      <stop offset="0.8" stop-color="#fff"/>
      <stop offset="0.99" stop-color="#fff" stop-opacity="0.1"/>
    </linearGradient>
    <linearGradient id="Unbenannter_Verlauf_148" x1="1233.55" y1="181.87" x2="913.4" y2="329.6" gradientUnits="userSpaceOnUse">
      <stop offset="0" stop-color="#aeaeaf"/>
      <stop offset="0.46" stop-color="#bbb6c2"/>
      <stop offset="0.8" stop-color="#fff"/>
      <stop offset="0.99" stop-color="#fff" stop-opacity="0.1"/>
    </linearGradient>
    <linearGradient id="Unbenannter_Verlauf_190" x1="1396.93" y1="475.8" x2="1131.17" y2="602.74" gradientUnits="userSpaceOnUse">
      <stop offset="0" stop-color="#e3e3e2"/>
      <stop offset="0.46" stop-color="#d5d1d9"/>
      <stop offset="0.8" stop-color="#fff"/>
      <stop offset="0.99" stop-color="#fff" stop-opacity="0.1"/>
    </linearGradient>
    <linearGradient id="Unbenannter_Verlauf_131" x1="152.93" y1="461.22" x2="658.09" y2="391.17" gradientUnits="userSpaceOnUse">
      <stop offset="0" stop-color="#b5b4b4"/>
      <stop offset="0.48" stop-color="#a7a0af"/>
      <stop offset="0.76" stop-color="#fff"/>
      <stop offset="0.99" stop-color="#fff" stop-opacity="0.1"/>
    </linearGradient>
    <linearGradient id="Unbenannter_Verlauf_116" x1="71.06" y1="709.63" x2="343.03" y2="544.32" gradientUnits="userSpaceOnUse">
      <stop offset="0" stop-color="#bdbcbc"/>
      <stop offset="0.48" stop-color="#b1abb8"/>
      <stop offset="0.76" stop-color="#fff"/>
      <stop offset="0.99" stop-color="#1a1731" stop-opacity="0.1"/>
    </linearGradient>
    <linearGradient id="Unbenannter_Verlauf_54" x1="1311.27" y1="1108.2" x2="972.49" y2="1176.72" gradientUnits="userSpaceOnUse">
      <stop offset="0" stop-color="#c6c1cc"/>
      <stop offset="0.44" stop-color="#cfcbd4"/>
      <stop offset="0.76" stop-color="#fff"/>
      <stop offset="1" stop-color="#fff" stop-opacity="0.1"/>
    </linearGradient>
    <linearGradient id="Unbenannter_Verlauf_35" x1="1129.8" y1="941.46" x2="1277.91" y2="941.46" gradientUnits="userSpaceOnUse">
      <stop offset="0" stop-color="#d0d0d0"/>
      <stop offset="1" stop-color="#fff" stop-opacity="0"/>
    </linearGradient>
    <linearGradient id="Unbenannter_Verlauf_15" x1="1193.19" y1="629.66" x2="1193.19" y2="629.66" gradientUnits="userSpaceOnUse">
      <stop offset="0" stop-color="#005d9a"/>
      <stop offset="0.38" stop-color="#1a1731"/>
    </linearGradient>
  </defs>
  <path class="cls-1" d="M229.61,1142.87a64,64,0,0,1-9.66-6.27,101.33,101.33,0,0,1-8.59-7.42,80.36,80.36,0,0,1-7.68-8.45,37.4,37.4,0,0,1-3.27-4.91,17.8,17.8,0,0,1-1.3-2.89,8.23,8.23,0,0,1-.47-3.78,2.15,2.15,0,0,1,.49-1.14l99.76-118.6-96.2,121.51.5-1.14a4.11,4.11,0,0,0,.29,1.66,13.17,13.17,0,0,0,1,2.14,34.69,34.69,0,0,0,2.91,4.27,75.93,75.93,0,0,0,7.29,7.86,97.69,97.69,0,0,0,8.23,7,59.85,59.85,0,0,0,8.94,5.7h0a2.5,2.5,0,1,1-2.23,4.47Z" transform="translate(-31.39 -81.3)"/>
  <path class="cls-2" d="M212.14,1335.88a100.49,100.49,0,0,1-13.52-6.19A140.63,140.63,0,0,1,186,1322a88.44,88.44,0,0,1-11.61-9.32,35.37,35.37,0,0,1-5-5.92,15.36,15.36,0,0,1-1.87-3.81,8.28,8.28,0,0,1-.12-5v0a2.15,2.15,0,0,1,.33-.66l197-262.76L171.46,1300.05l.35-.67a3.74,3.74,0,0,0,.14,2.18,11.31,11.31,0,0,0,1.35,2.66,31.45,31.45,0,0,0,4.39,5.09,85.11,85.11,0,0,0,11,8.73,137,137,0,0,0,12.21,7.33,95.11,95.11,0,0,0,12.86,5.79h0a2.5,2.5,0,0,1-1.65,4.72Z" transform="translate(-31.39 -81.3)"/>
  <path class="cls-3" d="M81.13,1192.14a54.81,54.81,0,0,1-8.3-5.62c-2.55-2-5-4.13-7.39-6.29-4.78-4.33-9.33-8.88-13.7-13.61a161.65,161.65,0,0,1-12.34-14.93,71.48,71.48,0,0,1-5.25-8.36,30.85,30.85,0,0,1-2-4.75,11.8,11.8,0,0,1-.56-5.86,2.09,2.09,0,0,1,.54-1.08h0L223.78,927.14,35.5,1134.74l.56-1.09a7.57,7.57,0,0,0,.47,3.52,26.74,26.74,0,0,0,1.74,4,67.18,67.18,0,0,0,4.94,7.77,158.27,158.27,0,0,0,12,14.41c4.29,4.6,8.78,9,13.46,13.23,2.34,2.09,4.72,4.12,7.17,6a50.84,50.84,0,0,0,7.5,5l0,0a2.5,2.5,0,1,1-2.29,4.44Z" transform="translate(-31.39 -81.3)"/>
  <path class="cls-4" d="M1307.67,253.19a63.93,63.93,0,0,1,9.61,6.51c3,2.35,5.82,4.8,8.61,7.32q8.34,7.56,15.95,15.83a190.58,190.58,0,0,1,14.37,17.37,82.64,82.64,0,0,1,6.1,9.7,36.41,36.41,0,0,1,2.34,5.48,19.77,19.77,0,0,1,.72,3.1,10.4,10.4,0,0,1-.07,3.55h0a2.29,2.29,0,0,1-.56,1.08L1141.51,561.87,1361.36,320l-.56,1.09a9.27,9.27,0,0,0-.55-4.3,32.44,32.44,0,0,0-2.06-4.73,80.2,80.2,0,0,0-5.79-9.11,184.51,184.51,0,0,0-14.08-16.85c-5-5.38-10.25-10.56-15.71-15.46-2.73-2.45-5.52-4.82-8.38-7.06a59,59,0,0,0-8.81-5.94l-.06,0a2.5,2.5,0,1,1,2.3-4.44Z" transform="translate(-31.39 -81.3)"/>
  <path class="cls-5" d="M1135.64,352.63a64.65,64.65,0,0,1,9.67,6.27,102.78,102.78,0,0,1,8.58,7.42,79.28,79.28,0,0,1,7.68,8.45,38.13,38.13,0,0,1,3.28,4.91,18.7,18.7,0,0,1,1.3,2.89,8.53,8.53,0,0,1,.47,3.79,2.24,2.24,0,0,1-.5,1.13L1066.36,506.1l96.2-121.52-.5,1.14a4.16,4.16,0,0,0-.29-1.66,14.92,14.92,0,0,0-1-2.14,32.91,32.91,0,0,0-2.92-4.26,76,76,0,0,0-7.28-7.87,99.44,99.44,0,0,0-8.24-7,59.85,59.85,0,0,0-8.94-5.7h0a2.5,2.5,0,1,1,2.24-4.48Z" transform="translate(-31.39 -81.3)"/>
  <path class="cls-6" d="M1151.87,81.44a121.66,121.66,0,0,1,16.18,7.4,169.71,169.71,0,0,1,15.09,9.2A107.26,107.26,0,0,1,1197,109.18a42.55,42.55,0,0,1,6,7,18.71,18.71,0,0,1,2.19,4.46,9.54,9.54,0,0,1,.14,5.67v0a2.58,2.58,0,0,1-.34.66L968.69,443l232.59-318.71-.34.68c.53-1.59-.38-4.06-1.84-6.21a38.16,38.16,0,0,0-5.34-6.2A101.79,101.79,0,0,0,1180.43,102a160.85,160.85,0,0,0-14.7-8.85,115.47,115.47,0,0,0-15.51-7h0a2.5,2.5,0,1,1,1.66-4.71Z" transform="translate(-31.39 -81.3)"/>
  <path class="cls-7" d="M1355.68,416.24a91.5,91.5,0,0,1,10.4,8.73,112.94,112.94,0,0,1,9.13,9.93,67.78,67.78,0,0,1,7.6,11.36,31.15,31.15,0,0,1,2.58,6.64,14.41,14.41,0,0,1,0,7.77h0a2.3,2.3,0,0,1-.61,1L1164.94,667.28l216.7-209-.61,1a9.91,9.91,0,0,0-.15-5.27,26.53,26.53,0,0,0-2.25-5.61,63.5,63.5,0,0,0-7.14-10.49,107.22,107.22,0,0,0-8.8-9.42,86.22,86.22,0,0,0-9.86-8.16h0a2.5,2.5,0,0,1,2.85-4.11Z" transform="translate(-31.39 -81.3)"/>
  <path class="cls-8" d="M164.3,528.62c7.39-8.52,15.33-16.56,23.38-24.47s16.25-15.67,24.56-23.31q25-22.8,51.54-44c8.84-7,17.81-13.92,27-20.51s18.52-13,28.13-19a289.28,289.28,0,0,1,29.78-16.49,161.65,161.65,0,0,1,15.81-6.53c5.36-1.81,10.7-3.69,16.1-5.36s10.82-3.31,16.25-4.93,10.89-3.05,16.39-4.41c11-2.77,22-5.31,33.13-7.4a585.93,585.93,0,0,1,67.27-8.69c22.55-1.63,45.14-2.12,67.7-2.34,11.28-.06,22.56-.07,33.83-.21q8.46-.09,16.91-.32c5.64-.12,11.27-.32,16.91-.56-45,3.58-90.26,2.42-135.11,6.52q-8.4.75-16.79,1.69c-5.59.63-11.17,1.3-16.74,2.08q-16.71,2.31-33.26,5.56c-11,2.14-22,4.67-32.88,7.46-5.45,1.37-10.86,2.92-16.27,4.42s-10.78,3.19-16.13,4.93-10.68,3.5-16,5.29a157.72,157.72,0,0,0-15.46,6.33,303.17,303.17,0,0,0-29.45,16.16c-19.14,11.77-37.36,25-55.24,38.71s-35.18,28.15-52.12,43Q200.78,493.4,188.4,504.9q-6.18,5.78-12.23,11.68C172.13,520.51,168.13,524.49,164.3,528.62Z" transform="translate(-31.39 -81.3)"/>
  <path class="cls-9" d="M98.49,750.9c5.19-13,11-25.76,17.14-38.37s12.86-24.93,20-37a496,496,0,0,1,48.67-68.68c18.3-21.31,38.37-41.23,60.71-58.32a340.28,340.28,0,0,1,34.83-23.67,301.64,301.64,0,0,1,37.62-18.74A361.27,361.27,0,0,0,246.93,551l-4.05,3.3c-1.35,1.1-2.71,2.19-4,3.36l-7.9,6.85c-2.62,2.29-5.12,4.73-7.68,7.08l-3.82,3.57c-1.26,1.2-2.47,2.46-3.71,3.68l-7.4,7.37-7.15,7.63-3.57,3.81c-1.19,1.27-2.3,2.62-3.46,3.93l-6.85,7.88c-1.17,1.3-2.27,2.65-3.37,4l-3.3,4.06c-2.18,2.71-4.42,5.38-6.57,8.12L167.8,634c-2.08,2.8-4.24,5.54-6.24,8.39-8.19,11.29-15.89,22.94-23.28,34.78s-14.32,24-20.92,36.3c-3.34,6.14-6.55,12.35-9.7,18.6-1.54,3.13-3.11,6.26-4.62,9.42S100,747.74,98.49,750.9Z" transform="translate(-31.39 -81.3)"/>
  <path class="cls-10" d="M1299.48,1060l-3.35,4.61-3.44,4.55q-3.51,4.5-7.16,8.89-7.3,8.78-15.15,17.1c-5.27,5.5-10.73,10.83-16.31,16s-11.41,10.14-17.34,14.93a395.42,395.42,0,0,1-77.38,48.62l-10.35,4.9-10.53,4.5-5.26,2.25-5.34,2.06-10.68,4.1-10.83,3.7-5.41,1.84-5.47,1.68c-3.65,1.1-7.28,2.28-10.94,3.31l-11,3q-22.14,5.71-44.68,9.58l-11.28,1.73c-3.77.56-7.54,1-11.31,1.53s-7.56.88-11.33,1.32-7.58.68-11.36,1c7.53-1.06,15-2.17,22.54-3.4,3.74-.66,7.48-1.27,11.21-2l11.18-2.17c14.87-3,29.61-6.62,44.21-10.67s29-8.86,43.2-14l10.57-4.13,5.29-2.07,5.21-2.25,10.42-4.51,10.24-4.89,5.13-2.43c1.71-.8,3.36-1.73,5-2.6l10-5.27c1.69-.85,3.32-1.81,5-2.76l4.9-2.86,4.91-2.85c1.62-1,3.3-1.85,4.87-2.9l9.56-6.11,4.78-3,4.68-3.22c6.23-4.29,12.32-8.78,18.31-13.4A383.92,383.92,0,0,0,1299.48,1060Z" transform="translate(-31.39 -81.3)"/>
  <path class="cls-11" d="M1206.64,724.47s6.95,20.14,25.55,47.37c2.27,3.34,4.75,6.84,4.31,11.22s-3.63,8.12-7.17,12.26a54,54,0,0,1-5.29,5.41c-10.62,9.13-43.2,68.19-74.52,104-15.07,17.21-29.66,28.83-50.77,45.64-19.44,15.48-35.14,25.88-40.21,29.19-39,25.52-72.12,39-93.56,47.52-38.42,15.35-68.52,22.89-89.72,28.12,0,0-57.74,14.23-114.81,19.09-9.08.77-13.63,1.16-16.45,1.3,0,0-41.13,2-49.08,2.93a5.72,5.72,0,0,0-.63.12h0a8.19,8.19,0,0,0-1.8.7l-.07,0c-6.12,3.59-42,0-42,0h0c-2.49-.25-8-.86-8.61-.92-3.63-.4-4.12-.07-10.17-.32,0,0-3.55-.15-9.19-.65-104.29-9.28-205.31-46.36-205.31-46.36h0c-13-4.76-45.15-16.91-91.48-50-23.94-17.07-62.73-44.74-91.21-80.87-15.76-20-49.24-62.46-51.2-68.67-.08-.28-.48-1.66-1.38-1.92-2.18-.62-5.42,5.79-6.56,8-13,25.35-22.11,28-33.31,50.58a15.27,15.27,0,0,1-5.78,6.67c-4,2.27-10,2.56-14-1.22a11,11,0,0,1-3.41-6.69,12.63,12.63,0,0,1,2.23-7.89c29.57-46.72,38.17-56.2,38.17-56.2,19.61-29.08,31-42.46,41.71-56,8.71-11.05,15.35-22.34,19.6-28.49,11.34-16.41,61.47-80,61.47-80,14.78-18.7,26.86-37.88,35.89-50a308.92,308.92,0,0,1,60-60.71c3.48-2.65,15.79-10.85,28.7-18.82,7.36-4.55,23.81-12.5,24.5-12.78,12.42-5,15.8-9.59,39.33-17.76,12.42-4.3,17.4-6.4,28.05-10.65,26.76-8.49,45.94-11.7,63.18-14.91a1015.36,1015.36,0,0,1,121-15.15c48.41-4.77,99.29-5.2,131.1-3.31,0,0,48.79-4.42,110.9,16.7,2.58.88,9.87,2.05,31.11,10.28,9,3.51,15.76,5.65,28.86,11.13,8.32,3.48,18.91,8,30.3,14,21.08,11,19.42,10,41.27,26.91,12.47,9.68,23.64,16,45.34,43.63,2.49,3.18,14.83,18,20.85,27.46,5,7.8,10.41,14.17,11.82,16.1,16.15,22,31.5,40.6,54.58,75,4.27,6.37,10.67,16.24,17.94,28.91M297.12,711.76c-30.55,26.59-54.12,48.76-69.07,63-25.08,23.85-25.62,28.57-26.24,37.09-.24,3.31-1.95,4.66,0,7.31,10.77,14.81,21,30.12,32.21,44.52,26.58,34.17,56.69,64,91.1,88.56,29.46,21,60.06,39.41,92.82,53.53a593.53,593.53,0,0,0,99.56,33c39,9.15,78.51,14,118.32,15.87,79.64,3.63,158.39-4.65,236.25-22.92,32.2-7.55,63.68-18.21,94.61-30.71,32-12.92,62.29-29.76,91.53-48.86,33.38-21.81,62.82-49.27,89.89-79.68,23-25.88,42.15-55.19,58.65-86.58,2-3.72,1.57-5.9-.88-8.86-20.14-24.4-40.62-48.31-63.75-69.45-28.94-26.46-58.68-51.46-91.5-71.93-33.46-20.87-68.14-38.38-105.24-49.86-1.55-.48-3.3-.86-4.18-1.74a44.33,44.33,0,0,0-5.7-1.42c-4.08-.88-8.05-2.36-12.09-3.51-37-10.52-74.71-16.72-112.74-20.55-11.5-1.15-23-1.69-34.57-2.51,54.93,22.59,98.74,59.88,128,116C933.5,728.52,941.46,789.22,929,852.75c-22.15,112.86-112.4,193-214.94,198.82-107.15,6.1-201.59-67.21-234-174.63-16.07-53.23-15.83-107,.59-160.07,19.92-64.41,58.93-111.29,113.42-145.1-2.41.43-3.66.54-4.84.88-28.81,8.23-57.9,15.44-86.35,25-26.89,9-67.62,25.44-118.44,54.75a739.52,739.52,0,0,0-68,44.37ZM556.25,973.34a7.28,7.28,0,0,0,2.47,2.37c.73.81,1.52,1.58,2.31,2.31a217.81,217.81,0,0,0,38.86,28.65q48.3,27.9,102.58,27.89a199.09,199.09,0,0,0,78.94-16.6c32.51-13.93,60.17-35.63,83.19-64.54a77.64,77.64,0,0,1,6.89-7.83,9.5,9.5,0,0,0,2.36-3.56c.68-1.44,1.53-2.15,2.3-3.52,6.33-11.26,13.39-22.08,19-33.77,20.16-42.17,27.21-87.39,22-134.41s-20.69-89.47-49.73-125.45c-25.34-31.38-55-55.43-91.07-69.61-39.91-15.68-80.58-19-121.85-8.78-37.69,9.38-71.3,27.66-99.81,57.15-20.91,21.64-37.34,46.79-50.19,74.63-13,28.11-19.14,58.62-20,90.11-1.09,40.43,5.29,79.14,23.24,115.13,9,18,18.84,35.33,31.28,50.72,4.27,5.28,8.85,10.27,14.17,16.42M364.59,637.27s81.91-45.35,99-51.57c8.5-3.1,31.29-14.33,40.08-16.24,9.45-2.06,31.72-9.13,39.87-11,18.09-4.17,35.49-9.22,46.75-11.36,11.85-2.26,41.87-6.22,41.87-6.22,6.74-.27,17-.91,29.14-1.73,21.8-1.48,37.3-2.61,39.87-2.79,58.64-4.3,92.62-2.77,123.28.68,6.2.7,18.53,2.8,24.71,3.67,27.07,3.8,55.86,8.71,86.34,17.2q10.78,3,21.08,6.3c16.9,5.58,30.84,11.29,41.19,15.88,39.49,17.51,58.17,28.62,76,40.78,8.27,5.64,13.23,10.19,18,13.69,18.09,13.14,28.56,23.34,37.11,30.49,10.46,8.75,18,15.13,25.53,22.17,6.68,6.25,10,9.38,10.75,10.26,4.69,5.63,7.77,11.27,10.61,10.44a3.16,3.16,0,0,0,1.73-1.6c2.49-4.94-7.49-16.84-20.18-37.2-8-12.85-7-11.11-14.61-20.59-1.7-2.12-4.52-5.49-13.33-18.94-5.41-8.26-9.67-12.78-19.12-23.67-13.88-16-29.38-38.74-48.15-53-11.9-9.06-14.57-11.59-17-13.26s-10-5.82-16.54-10.18c-4.3-2.84-14.64-8.07-26.44-13.73-9.89-4.73-16.16-6.47-29.45-11.59-25.71-9.93-28.37-9.95-53.93-18-4.88-1.53-21.75-3.09-47.08-7.6-13.28-2.36-32.2-3.13-58.89-6.15-18.83-2.14-30.95-1-73.21-.9-54.19.12-97.15,2.74-113.88,5.63-24.24,4.19-58.67,9-90,17.4-16.34,4.38-50.29,10.14-79.95,25.92-13.42,7.14-39.43,14.95-67.7,34.08-21.52,14.57-25.15,19.18-41.59,39.77-17.11,21.43-23.21,29.12-33.53,45.45a194.42,194.42,0,0,1-12.25,17.75c-10.59,13.56-21.3,30.67-34.45,48.64m0,0,.33.56,98-69.44" transform="translate(-31.39 -81.3)"/>
  <path class="cls-11" d="M955.67,769.17c0,3.45,0,6.89,0,10.34,0,4.89-1.82,7.33-5.35,7.41s-5.33-2.26-5.34-7.28a226.81,226.81,0,0,0-18.58-90.89,191.62,191.62,0,0,0-24.81-41.9c-1.14-1.46-2.81-3.3-2.71-4.85a10.59,10.59,0,0,1,2.71-6.53c2.3-2.14,4.7-.58,6.57,1.76a203,203,0,0,1,28,46.64A242.59,242.59,0,0,1,955.67,769.17Z" transform="translate(-31.39 -81.3)"/><path class="cls-11" d="M443.42,764.86c1.6-27,8.29-50.49,18.38-72.91a292,292,0,0,1,31.09-52.72c3.59-4.89,6.38-4.36,9.81.72,2.5,3.7-.66,5.09-1.81,6.95-6.93,11.26-14.63,22-21.12,33.53-14.14,25.15-23.44,52.28-25.57,82.06-.13,1.88-.47,4.49-1.6,5.35-1.61,1.21-4.38,2-6,1.32S443.92,765.6,443.42,764.86Z" transform="translate(-31.39 -81.3)"/>
  <path class="cls-11" d="M311.19,921.37c-1.59,2.53-2.39,5.19-3.92,5.88a7,7,0,0,1-6.06-.65,239.81,239.81,0,0,1-47.34-44c-7.69-9.33-14.68-19.37-22-29.12-2.53-3.39-5-6.83-7.41-10.34-2.09-3.06-2.33-6.26.86-8.5,3-2.13,6.36-2.17,8.82,1.23s4.43,7,6.72,10.43c18.12,27.24,39.6,50.66,65.2,69.4C307.93,917.07,309.27,919.2,311.19,921.37Z" transform="translate(-31.39 -81.3)"/><path class="cls-11" d="M1163.2,829.56c-1.12,2.46-1.61,4.23-2.59,5.57-15.69,21.42-32.09,42.13-50.34,61a16.4,16.4,0,0,1-1.34,1.3c-3,2.56-5.92,2.18-8.25-.94-2.16-2.88-1.43-5.59.88-8.25,11.08-12.81,22.15-25.63,33-38.65,6.31-7.57,12.12-15.67,18.44-23.23,1.23-1.46,4.12-2.59,5.66-2C1160.51,825,1161.72,827.73,1163.2,829.56Z" transform="translate(-31.39 -81.3)"/>
  <path class="cls-11" d="M957.3,812.27c-1.86,8.72-3.6,17.48-5.63,26.15-.82,3.47-3.46,4.32-6.4,3.51s-4.28-3.1-3.77-6.26q2.25-14,4.84-27.87c.64-3.48,3-4.74,6-4.36s4.36,2.49,4.39,5.72c0,1,0,2,0,2.94Z" transform="translate(-31.39 -81.3)"/><path class="cls-11" d="M507.4,629.66c-1.52-1.34-3.92-2.57-4.82-4.61-.55-1.25.77-4.28,2-5.57,4.68-4.75,9.64-9.18,14.59-13.59,2.46-2.2,5-1.81,7.16.67s2.44,5.31.29,7.45c-5.16,5.13-10.63,9.89-16,14.71C510,629.27,508.93,629.23,507.4,629.66Z" transform="translate(-31.39 -81.3)"/><path class="cls-11" d="M323,931.19a29.17,29.17,0,0,1,4.29,1.88c4.38,3.06,8.86,6,13,9.43a5.74,5.74,0,0,1,.86,8.26c-2.06,2.75-4.62,3.26-7.52,1.26-4.65-3.2-9.51-6-14-9.55-1.31-1-2.6-4.39-2-5.54C318.81,934.53,321.27,932.89,323,931.19Z" transform="translate(-31.39 -81.3)"/><path class="cls-11" d="M1180.69,803.53c.09,3.25-6.55,12.22-9.41,12.72-4.16.73-7.75-3.89-5.78-8.16a29.42,29.42,0,0,1,6.87-9.37C1175.72,795.72,1180.56,798.81,1180.69,803.53Z" transform="translate(-31.39 -81.3)"/><path class="cls-12" d="M428.86,544.07c-2.1,10.46-3.55,21.06-5,31.62l-.07,0c-7.05-7.06-13.8-14.42-21.07-21.27l2.5-3.08c1.14,1.45,15.6,16.4,16.69,17.29.31-1.15,3.34-23.89,3.4-25.27Z" transform="translate(-31.39 -81.3)"/><path class="cls-12" d="M441.47,556.69c1,3.22,2.83,8.94,3.1,9.69l-3.34,1.23c-.36-1.43-2.63-9-2.88-9.8l-1.07-3.48c-.17-.57-2.72-8.48-3-9.21l3.52-1.3c.1.6,1.47,5.52,2.64,9.39Z" transform="translate(-31.39 -81.3)"/><path class="cls-12" d="M452.78,561c3.27-2,7.2-5.45,6.33-8.54-.54-1.9-2-2.51-5-3.08-3.57-.69-6.17-1.52-7-4.22-1.18-4,3.12-9.71,7.81-12.61l1.59,2.68c-2.12,1.14-7,4.85-6.07,8,.57,2,3.5,2.3,5.29,2.73,3.24.76,5.78,1.24,6.64,4.33,1,3.74-1.55,9.07-7.88,13.19Z" transform="translate(-31.39 -81.3)"/><path class="cls-11" d="M470.36,538.09c1.66,6.2,2.67,9,4.78,11.15a6.66,6.66,0,0,0,7.2,1.74,7.85,7.85,0,0,0,5.34-5.59c1-3.41-.12-8.12-1.63-14.17-.13-.54-.2-.81-.33-1.34-.67-2.66-1.38-4.89-1.81-6.29l3.51-1.06c.21.85.87,3.39,1.62,6.43l.44,1.77c1.81,7.41,2.57,12.25.75,16.62a11.22,11.22,0,0,1-7.59,6.74,9.14,9.14,0,0,1-9.56-1.9c-2.46-2.32-3.89-5.1-6.4-14.4-.23-.83-.34-1.24-.56-2.07-.48-1.76-1.2-4.56-1.44-5.44l3.49-1.14c.2,1,.57,2.85,1.5,6.34Z" transform="translate(-31.39 -81.3)"/><path class="cls-11" d="M497.47,547.56c2.35-10.32,4.46-20.7,7.08-31l.07,0c7.05,7.5,13.5,15.54,20.34,23.23l-2.61,3c-1-1.29-6.62-8.23-7.16-8.75-5,1.57-7.52,2.37-12.51,4-.27.86-1.48,9.17-1.78,10.66C499.53,548.24,498.85,548,497.47,547.56Zm16.08-15.72c-.59-.74-7.13-8.55-7.64-9.07-.37,1-2.41,11.67-2.59,12.38C507.4,533.8,509.45,533.14,513.55,531.84Z" transform="translate(-31.39 -81.3)"/><path class="cls-11" d="M529.44,511.59c0,.89,1.42,8.61,2.4,13.52.89,4.42,1.33,6.63,2.22,11,.87-.21,5.16-1.25,8.63-2.22l.64,3.37c-.51.11-11.35,2.31-12.26,2.53-.13-2.14-1.83-10.47-2-11.41l-1-5.18c-.13-.62-2.12-10-2.35-10.72Z" transform="translate(-31.39 -81.3)"/><path class="cls-11" d="M551.86,522.66c.7,3.92,2.07,10.91,2.27,11.8l-3.53.78c-.24-1.74-1.88-10.91-2.07-11.93-.31-1.69-.47-2.53-.78-4.23-.12-.66-2-10.31-2.25-11.23l3.74-.82c0,.72,1,6.7,1.86,11.4C551.4,520.12,551.55,521,551.86,522.66Z" transform="translate(-31.39 -81.3)"/><path class="cls-11" d="M558.14,504.37c2.48-.27,20-2.91,21-3.08l0,.07c-4.69,9-8.67,18.47-12.66,27.83,2-.4,14.15-2.84,15.15-3.19l.35,3.3c-.92.17-19,3.28-20.9,3.68v-.08c4.46-9.27,8.41-18.79,12.68-28.16-1.46.28-14.17,2.42-15.25,2.64C558.35,506.18,558.28,505.57,558.14,504.37Z" transform="translate(-31.39 -81.3)"/><path class="cls-11" d="M591.68,515c.55,4,1.63,11,1.8,11.9l-3.55.6c-.18-1.75-1.45-11-1.59-12l-.6-4.27c-.1-.67-1.59-10.39-1.8-11.33l3.76-.64c0,.73.74,6.75,1.4,11.49C591.33,512.43,591.45,513.28,591.68,515Z" transform="translate(-31.39 -81.3)"/><path class="cls-11" d="M603.11,525.34c-.75-9.83-1.56-19.66-2.34-29.48h.07c7.7,6.47,15.37,13,22.93,19.6-.12-1.11-1.87-19.82-2-21.14l3.52-.24q.72,14.39,1.93,28.74h-.07c-7.59-6.69-15.34-13.2-23-19.81h-.08c.18,1.38,2.28,20.78,2.48,22.08C605.2,525.18,604.5,525.23,603.11,525.34Z" transform="translate(-31.39 -81.3)"/><path class="cls-11" d="M655.05,512.69c.11,1.52.48,5,.52,5.57a25.41,25.41,0,0,1-7.87,2c-8.19.83-14-3.58-14.58-10.13-.43-4.49,3.06-14.16,16.77-19.55.4,1.36.61,2,1,3.39-8.29,2.55-14.71,9.47-14.13,15.78.38,4.14,4.3,8.33,11.46,7.61a12.55,12.55,0,0,0,3.82-1c-.2-2.66-.3-4-.51-6.65-.08-1.15-.26-2.5-.31-2.73l3.42-.32c0,1,.1,1.87.19,3.07Z" transform="translate(-31.39 -81.3)"/><path class="cls-12" d="M670.13,516.39c4-9.61,7.67-19.33,11.86-28.84h.08c5.37,8.87,10.06,18.14,15.19,27.15l-3,2.36c-.76-1.49-4.82-9.5-5.24-10.12-5,.46-7.46.7-12.44,1.24-.39.79-2.92,8.68-3.46,10.07Zm17.76-12c-.43-.85-5.26-9.92-5.65-10.54-.51.91-4.22,10.93-4.51,11.59C681.8,505,683.83,504.82,687.89,504.43Z" transform="translate(-31.39 -81.3)"/><path class="cls-11" d="M720.91,509.49c0,1.52.13,5.07.13,5.59a23.86,23.86,0,0,1-7.8,1.36c-8,.13-13.29-4.75-13.46-11.33-.12-4.51,3.84-13.87,17.58-18.07l.75,3.46c-8.26,1.83-14.93,8.19-14.78,14.54.09,4.15,3.6,8.66,10.62,8.56a12.11,12.11,0,0,0,3.78-.65l-.05-6.67c0-1.16-.09-2.51-.13-2.75l3.37,0c0,1,0,1.88,0,3.08Z" transform="translate(-31.39 -81.3)"/>
  <path class="cls-11" d="M741.22,516.29c-.57,0-11.2-.56-11.91-.56.12-2.12.16-10.67.16-11.59,0-2.14,0-3.21,0-5.35,0-.63,0-10.26-.06-11,.88,0,10.38-.47,11.55-.6l.1,3.16c-1.17,0-7.7.07-8.28.06l-.09,10.15c.65,0,5.25-.13,7-.34,0,1.27,0,1.9.06,3.16-.79,0-6.37-.26-7.09-.27,0,3.9-.05,5.85-.08,9.75.85,0,5.6.19,8.52,0C741.17,514.23,741.18,514.92,741.22,516.29Z" transform="translate(-31.39 -81.3)"/>
  <path class="cls-11" d="M748.55,516.09c.73-9.83,1.4-19.67,2.09-29.5h.08c6.33,7.81,12.64,15.63,18.85,23.54,0-1.12,1.15-19.89,1.25-21.21l3.4.41q-1.46,14.32-2.42,28.69h-.07c-6.23-8-12.62-15.82-18.89-23.76h-.08c0,1.39-.88,20.9-.89,22.22Z" transform="translate(-31.39 -81.3)"/>
  <path class="cls-11" d="M786.71,518.25c.24-1,1-12.65,1.46-19,.15-2.37.23-3.56.38-5.93-4.22-.35-9.44-.52-10.4-.43.08-1.35.11-2,.19-3.38,1.45.42,10.16,1.24,10.57,1.27l3.2.27c.71.06,8.78.64,10.44.48-.11,1.35-.16,2-.27,3.38-.5-.21-7.32-1.05-10.41-1.32-.19,2.63-.28,3.95-.46,6.57-.55,8.09-.85,17.6-.83,18.4Z" transform="translate(-31.39 -81.3)"/>
  <path class="cls-12" d="M818.37,502.13c.12-1.19.69-7.87.66-8.72a40,40,0,0,1,5.15.87c7.52,1.61,8.24,4.88,8,7.1-.17,1.51-1.23,4.13-5.38,5.57V507c2.52.76,5.55,3.39,5.16,7-.53,4.72-6.6,8.5-15.34,7.51l-.29,0c.39-2.16,1.55-14.15,1.62-14.91C818.12,504.78,818.2,503.9,818.37,502.13Zm2.85,3.88c4.09.38,7.1-1.92,7.38-4.58.38-3.57-3.84-4.67-6.42-5.07C821.8,500.22,821.61,502.15,821.22,506Zm-1.29,13c4,0,7.89-1.53,8.3-5.26.29-2.78-2.55-5.13-7.23-5.46C820.57,512.56,820.35,514.7,819.93,519Z" transform="translate(-31.39 -81.3)"/>
  <path class="cls-11" d="M851.61,526.53c-.59-.1-11.56-2.19-12.3-2.3.37-2.08,1.38-10.55,1.49-11.46.26-2.12.39-3.18.64-5.31.08-.63,1.15-10.18,1.2-10.94.91.13,10.82,1,12.05,1.08-.11,1.26-.16,1.89-.26,3.15-1.21-.2-8-1.05-8.6-1.14-.5,4-.75,6-1.24,10.05.67.1,5.46.64,7.31.69l-.3,3.14c-.81-.13-6.58-1.18-7.33-1.29-.47,3.86-.71,5.79-1.19,9.65.88.13,5.79,1,8.84,1.25C851.79,524.47,851.73,525.16,851.61,526.53Z" transform="translate(-31.39 -81.3)"/>
  <path class="cls-11" d="M860.34,527.58c.32-1.73,1.67-11,1.82-12l.6-4.26c.1-.67,1.37-10.43,1.43-11.39l3.76.65c-.18.7-1.46,8.72-1.57,9.43-.18,1.23-.26,1.85-.44,3.08,6.66.87,10,1.34,16.66,2.35.2-1.26.3-1.89.51-3.15.11-.66,1.19-7.76,1.25-8.63l3.83.76c-.27.92-2.22,11.49-2.38,12.43-.26,1.57-.39,2.36-.66,3.93-.08.51-1.64,10.34-1.69,11.1l-3.65-.72c.33-1.32,1.58-8.29,1.7-9,.27-1.64.4-2.45.66-4.09-6.64-1-10-1.47-16.61-2.34-.15,1-.22,1.52-.37,2.53-.26,1.77-1.21,9-1.3,10Z" transform="translate(-31.39 -81.3)"/>
  <path class="cls-11" d="M889.73,531.86c6.17-8.19,12.17-16.5,18.52-24.54l.07,0c3.39,10.12,6,20.47,9.18,30.64L914,539.41c-.42-1.65-2.72-10.58-3-11.3-5.13-1-7.69-1.45-12.83-2.34-.57.64-4.92,7.56-5.77,8.76C891.32,533.46,890.79,532.92,889.73,531.86Zm20.62-6.51c-.23-1-3.05-11.11-3.3-11.82-.72.74-6.75,9.37-7.19,9.93C904.06,524.19,906.16,524.57,910.35,525.35Z" transform="translate(-31.39 -81.3)"/>
  <path class="cls-11" d="M948.1,520.16c-6.94,7.51-13.39,15.51-19.81,23.47l-.07,0c-2.36-10.15-4.31-20.39-6.93-30.47l3.59-1.08c.23,1.9,4.81,23.11,5.28,24.51.82-.78,14.6-18,15.32-19.11Z" transform="translate(-31.39 -81.3)"/>
  <path class="cls-11" d="M953.52,536.8c-.93,3.86-2.48,10.81-2.66,11.71l-3.49-1c.47-1.68,2.65-10.72,2.88-11.72.4-1.67.6-2.51,1-4.17.16-.66,2.3-10.24,2.45-11.19l3.7,1.07c-.24.67-1.76,6.51-2.87,11.14Z" transform="translate(-31.39 -81.3)"/>
  <path class="cls-11" d="M960.91,538.5c2.12-8.56,9.65-13.77,18.53-10.93,7,2.24,10.88,8.79,8.59,17-1.66,6-7.85,13.62-18,10.39C962.21,552.52,959.23,545.28,960.91,538.5Zm23.55,5.13c1.87-6.85-1.47-11.84-6.29-13.38-6.57-2.11-12,2.15-13.62,8.73-1.45,5.73.9,11.49,6.53,13.28C976.47,554,982.4,551.16,984.46,543.63Z" transform="translate(-31.39 -81.3)"/>
  <path class="cls-11" d="M998.08,544.38c-1.78,6.17-2.34,9.08-1.7,12.19a7.59,7.59,0,0,0,5.09,5.89,7,7,0,0,0,7.29-1.34c2.58-2.2,4-6.8,5.86-12.74l.41-1.33c.8-2.61,1.34-4.89,1.69-6.32l3.46,1.3c-.25.83-1,3.34-1.92,6.32l-.54,1.74c-2.25,7.25-4.09,11.73-7.84,14.23-2.91,1.95-6,2.25-9.74.89a10.32,10.32,0,0,1-7-7.46c-.86-3.44-.62-6.63,2-15.89.23-.82.35-1.23.59-2.05.49-1.76,1.32-4.53,1.57-5.4l3.48,1.21c-.36,1-1,2.71-2,6.17Z" transform="translate(-31.39 -81.3)"/>
  <path class="cls-11" d="M1027.64,562c-.46,1.43-3.45,11-3.56,11.57l-3.42-1.34c.43-.85,4.19-12.81,4.45-13.6l1-3.09c.36-1.13,2.79-8.95,2.91-9.71a66.72,66.72,0,0,1,7.42,3.36c4.58,2.5,6.58,5.73,5.5,8.91s-4,4.81-7.53,5.58c.47,1.63,4,12.59,4.62,14.12l-3.45,1.17c-.21-.68-4.47-15-5-17,2.12-.3,6.45-1.14,7.68-4.81.57-1.69.23-4.71-6.59-7.49Z" transform="translate(-31.39 -81.3)"/>
  <path class="cls-13" d="M1245.44,816.33c-18.76,28-33.1,71.48-72.62,120.54-81,100.52-310.87,163.38-343,168.22" transform="translate(-31.39 -81.3)"/>
  <path class="cls-14" d="M1277.75,844.9c-9.42,18.41-18.47,37-27,55.89-2.12,4.72-4.15,9.45-6.23,14.21s-4.28,9.46-6.61,14.11a209.88,209.88,0,0,1-16,26.73A233.57,233.57,0,0,1,1202.29,980l-2.64,2.86-2.73,2.77c-1.81,1.85-3.63,3.71-5.52,5.48s-3.7,3.62-5.65,5.34-3.92,3.41-5.94,5c-8.09,6.49-16.56,12.45-24.74,18.79s-16.16,12.94-23.77,20q11.29-10.67,23.54-20.26c8.11-6.44,16.51-12.51,24.5-19.07,2-1.65,4-3.33,5.84-5.08s3.71-3.6,5.57-5.39,3.65-3.66,5.43-5.53l2.69-2.79,2.59-2.88A231.28,231.28,0,0,0,1220.73,955a208.53,208.53,0,0,0,15.55-26.7c2.25-4.64,4.37-9.35,6.4-14.1s4-9.55,6.07-14.3c8.26-19,17.11-37.76,26.33-56.33a1.5,1.5,0,1,1,2.68,1.33Z" transform="translate(-31.39 -81.3)"/>
  <path class="cls-15" d="M1193.19,629.66" transform="translate(-31.39 -81.3)"/>
  <text class="cls-16" transform="translate(471.06 806.58) scale(0.91 1)">2.0</text>
  <text class="cls-17" transform="translate(459.33 767.88) scale(0.91 1)">VISAB</text>
</svg>
