<?xml version="1.0" standalone="no"?>
<!DOCTYPE svg PUBLIC "-//W3C//DTD SVG 20010904//EN"
 "http://www.w3.org/TR/2001/REC-SVG-20010904/DTD/svg10.dtd">
<svg version="1.0" xmlns="http://www.w3.org/2000/svg"
 width="3023.000000pt" height="2389.000000pt" viewBox="0 0 3023.000000 2389.000000"
 preserveAspectRatio="xMidYMid meet">

<g transform="translate(0.000000,2389.000000) scale(0.100000,-0.100000)"
fill="#000000" stroke="none">
<path d="M21684 23871 c-43 -26 -60 -77 -41 -123 17 -41 28 -49 102 -78 292
-114 682 -379 750 -510 l16 -31 -109 -152 c-833 -1160 -3087 -4308 -3236
-4520 -65 -92 -116 -170 -114 -172 6 -6 206 254 1379 1795 1886 2476 2202
2892 2236 2942 45 68 46 129 1 218 -93 186 -492 480 -847 624 -77 31 -96 32
-137 7z"/>
<path d="M29052 21985 c-16 -14 -32 -37 -35 -52 -10 -53 15 -85 149 -189 152
-117 424 -384 544 -534 205 -256 320 -484 320 -631 l0 -47 -692 -668 c-1966
-1900 -5630 -5447 -5818 -5632 -118 -116 -211 -211 -207 -212 13 0 130 108
3232 3001 3998 3728 3652 3402 3666 3451 16 62 6 218 -21 303 -106 336 -517
848 -933 1161 -113 85 -151 94 -205 49z"/>
<path d="M24917 20789 c-23 -13 -47 -62 -47 -94 0 -42 17 -63 88 -109 259
-166 644 -558 814 -827 95 -151 116 -106 -219 -480 -949 -1062 -2935 -3294
-3031 -3407 -84 -98 -47 -73 63 42 236 247 2773 2904 3092 3240 389 408 378
392 352 499 -16 67 -41 126 -86 202 -213 354 -822 946 -972 945 -20 0 -44 -5
-54 -11z"/>
<path d="M10160 19869 c-1158 -30 -2245 -215 -3278 -558 -286 -95 -397 -140
-622 -253 -578 -288 -1300 -803 -2096 -1494 -513 -446 -1091 -1007 -1373
-1334 -75 -87 -51 -67 144 120 455 437 1254 1109 1861 1567 604 455 1089 770
1514 984 204 102 324 150 620 247 1144 377 2235 566 3640 632 124 6 262 13
306 16 l82 6 6 31 c4 20 2 34 -6 39 -15 9 -391 8 -798 -3z"/>
<path d="M21953 19666 c-39 -33 -49 -73 -30 -118 11 -26 31 -44 80 -72 145
-81 351 -257 443 -379 78 -104 85 -79 -83 -298 -694 -903 -1523 -1989 -1556
-2039 -41 -64 419 460 1424 1620 64 74 193 223 286 330 93 107 175 205 181
217 28 52 0 147 -78 263 -54 81 -270 298 -370 371 -176 130 -241 152 -297 105z"/>
<path d="M14355 17620 c-505 -14 -725 -28 -1730 -111 -618 -51 -1323 -145
-1980 -265 -734 -134 -1096 -225 -1460 -369 -93 -37 -249 -95 -345 -130 -275
-98 -289 -104 -775 -345 -461 -229 -577 -295 -914 -518 -321 -212 -606 -456
-930 -797 -246 -259 -414 -473 -730 -928 -225 -324 -350 -493 -672 -902 -662
-844 -909 -1173 -1133 -1508 -108 -162 -246 -352 -362 -497 -223 -281 -433
-560 -574 -765 -57 -82 -154 -217 -216 -300 -184 -247 -670 -981 -715 -1080
-76 -167 72 -337 256 -296 90 20 128 57 212 210 94 170 126 217 288 426 152
195 238 323 323 481 77 143 110 192 134 200 21 6 48 -11 48 -31 0 -22 139
-223 335 -483 213 -284 640 -832 769 -987 386 -464 877 -896 1641 -1442 809
-578 1406 -894 2170 -1148 1368 -455 3008 -798 4040 -845 110 -5 263 -16 340
-24 381 -41 723 -43 834 -6 31 10 74 21 96 24 44 6 421 29 755 46 1416 72
3080 408 4327 876 1234 462 2042 921 3058 1735 551 442 785 672 1107 1085 192
246 346 469 920 1339 172 261 235 343 347 460 173 179 231 268 230 355 0 69
-17 103 -136 286 -185 283 -335 560 -427 788 -59 145 -307 543 -596 956 -189
269 -334 466 -700 950 -185 245 -365 488 -400 540 -97 145 -180 255 -398 527
-336 419 -478 562 -787 796 -88 67 -223 170 -300 230 -77 60 -189 142 -250
182 -113 75 -411 237 -615 333 -381 180 -1134 472 -1475 572 -71 21 -206 61
-300 90 -417 127 -803 206 -1255 255 -138 16 -342 21 -1445 38 -170 3 -445 2
-610 -3z m1320 -378 c99 -12 331 -35 515 -52 405 -37 458 -43 675 -80 94 -16
309 -49 480 -75 170 -25 328 -50 350 -56 230 -61 781 -244 1138 -378 624 -234
849 -344 1342 -656 147 -93 476 -356 614 -490 154 -150 254 -264 506 -575 109
-135 255 -310 325 -390 174 -200 219 -259 358 -465 67 -99 162 -232 213 -295
128 -161 155 -198 244 -340 43 -69 141 -222 219 -340 214 -328 256 -421 209
-472 -37 -41 -72 -17 -180 122 -84 108 -317 326 -629 590 -87 74 -240 205
-339 290 -197 171 -325 275 -485 395 -58 44 -154 118 -215 166 -394 310 -933
614 -1680 946 -833 371 -1678 605 -2770 768 -132 19 -341 51 -465 69 -381 58
-648 81 -1112 97 -503 17 -918 1 -2013 -76 -275 -19 -612 -42 -750 -50 -241
-14 -672 -68 -995 -125 -167 -30 -994 -237 -1355 -340 -170 -49 -350 -98 -398
-110 -105 -26 -255 -84 -547 -212 -118 -52 -253 -110 -300 -128 -174 -68 -800
-392 -1575 -815 -362 -198 -379 -208 -780 -490 -225 -159 -489 -346 -585 -415
-398 -287 -942 -671 -946 -667 -2 2 20 37 49 78 29 41 145 207 257 369 111
162 267 381 345 485 79 105 198 276 265 380 208 323 308 459 690 935 346 430
429 510 785 752 291 198 562 341 1020 538 143 62 321 143 396 181 356 178 663
281 1303 436 171 41 383 93 471 114 88 22 270 61 405 88 271 55 1211 214 1360
230 576 63 1442 90 2760 86 585 -2 662 -4 825 -23z m-385 -1687 c871 -61 1893
-241 2615 -460 61 -18 144 -41 185 -50 41 -10 80 -21 85 -25 6 -4 105 -39 220
-78 588 -196 1135 -454 1780 -840 606 -363 1161 -786 1863 -1419 248 -224 403
-374 591 -573 287 -305 807 -910 838 -976 10 -20 13 -44 9 -66 -7 -39 -169
-340 -306 -568 -212 -355 -499 -762 -735 -1043 -370 -441 -861 -930 -1290
-1282 -599 -492 -1517 -1043 -2285 -1372 -691 -296 -1447 -544 -2153 -708
-2162 -500 -4386 -590 -6317 -254 -1189 206 -2438 635 -3398 1165 -446 246
-1039 639 -1403 929 -510 407 -971 870 -1404 1410 -168 210 -249 319 -537 725
-214 302 -222 315 -214 336 3 8 13 61 21 117 31 213 124 330 655 831 994 938
1396 1278 2000 1693 858 589 1846 1124 2751 1488 491 198 862 317 1744 560
193 53 406 112 474 131 68 19 130 34 139 32 8 -2 -43 -41 -114 -88 -475 -312
-895 -694 -1242 -1129 -108 -135 -313 -437 -403 -596 -91 -159 -249 -488 -314
-655 -437 -1109 -509 -2277 -209 -3409 199 -753 549 -1434 1044 -2031 123
-149 435 -463 575 -579 610 -507 1275 -831 2000 -976 1227 -245 2466 46 3495
821 454 342 883 812 1192 1309 502 805 770 1737 795 2760 26 1103 -281 2157
-900 3085 -493 739 -1182 1324 -2012 1707 -71 33 -150 70 -175 81 l-45 22 85
-5 c47 -3 182 -12 300 -20z m-1415 -94 c684 -92 1318 -339 1859 -724 482 -343
983 -880 1289 -1383 110 -180 248 -450 298 -581 l9 -25 -33 21 c-18 11 -60 27
-92 36 -160 41 -338 -4 -491 -126 l-61 -48 -23 24 c-99 105 -347 22 -685 -229
-379 -282 -746 -645 -1049 -1036 -32 -41 -61 -76 -64 -77 -4 -2 -65 96 -137
217 -71 121 -135 220 -142 220 -7 0 -30 -30 -51 -67 -124 -212 -947 -1732
-941 -1737 24 -18 453 -276 459 -276 5 0 9 -57 8 -127 0 -203 47 -326 172
-451 238 -238 546 -253 965 -48 231 113 459 281 745 547 l149 139 73 0 c112 0
291 18 411 40 293 56 530 182 635 339 60 91 75 144 70 259 -3 87 -7 104 -37
160 -55 101 -146 172 -277 216 l-66 23 74 46 c89 55 166 134 204 208 31 62 44
177 26 242 -10 34 -7 46 32 130 152 327 255 693 257 915 l0 77 20 -55 c77
-212 164 -639 210 -1021 27 -223 37 -709 20 -937 -48 -630 -213 -1234 -485
-1777 -75 -149 -215 -396 -398 -700 -17 -27 -55 -77 -87 -110 -31 -33 -105
-121 -166 -195 -134 -164 -409 -442 -565 -572 -632 -524 -1359 -838 -2180
-940 -164 -20 -709 -17 -885 5 -1010 129 -1953 630 -2628 1396 -217 247 -364
449 -532 736 -90 152 -294 546 -333 643 l-21 52 47 0 c66 0 243 30 552 94 429
88 859 152 1230 181 212 17 275 28 332 56 103 52 80 152 -45 196 -44 15 -84
18 -257 17 -197 -1 -231 -4 -870 -88 -365 -48 -672 -85 -681 -84 -22 4 1590
975 1669 1005 13 5 14 -27 10 -265 l-4 -272 279 0 279 0 -3 431 -4 432 25 17
c43 31 353 221 355 218 1 -2 13 -23 27 -48 43 -73 143 -162 304 -268 203 -135
228 -167 185 -239 -43 -69 -187 -121 -363 -130 -76 -4 -108 -9 -108 -18 0 -7
14 -106 30 -220 17 -114 30 -212 30 -217 0 -20 273 36 409 84 373 132 610 391
611 669 0 117 -63 239 -167 321 -32 25 -121 81 -197 124 -76 43 -152 91 -167
105 -38 35 -46 74 -25 114 36 66 146 104 324 112 85 4 122 9 119 17 -3 6 -15
86 -28 177 l-23 165 63 74 c188 223 271 407 271 600 0 209 -83 389 -246 539
-188 172 -409 194 -763 75 -335 -111 -786 -389 -1211 -745 -201 -169 -290
-277 -275 -336 10 -41 63 -111 96 -129 49 -25 79 -10 206 102 565 503 1145
826 1589 885 244 32 351 -22 362 -184 6 -99 -11 -172 -69 -285 -72 -145 -182
-264 -441 -481 -183 -153 -539 -419 -820 -615 l-98 -67 0 305 0 306 -279 0
-279 0 1 -486 2 -485 -494 -310 c-271 -171 -494 -309 -496 -307 -1 2 172 307
383 677 212 371 381 676 376 678 -5 2 -119 68 -254 148 -135 79 -248 141 -251
137 -7 -7 -410 -924 -456 -1037 -15 -36 -27 -64 -29 -62 -6 6 -464 1091 -464
1098 0 5 -3 9 -7 8 -19 -1 -518 -317 -516 -327 3 -14 519 -980 694 -1300 77
-140 139 -257 139 -260 0 -4 -126 -85 -279 -181 -153 -96 -299 -189 -325 -208
-53 -38 -105 -105 -113 -145 -3 -16 -9 -28 -13 -28 -4 0 -21 48 -38 108 -101
348 -156 668 -183 1046 -13 193 -7 754 10 911 69 626 199 1077 461 1602 437
876 1032 1550 1755 1987 489 295 1139 511 1700 565 61 6 126 13 145 15 98 11
572 -4 715 -23z m3296 -2814 c19 -12 44 -42 57 -67 22 -42 23 -53 19 -180 -8
-204 -59 -371 -217 -696 l-87 -181 -86 28 c-172 58 -456 89 -812 89 l-180 0 4
-799 3 -798 -59 -69 c-89 -103 -344 -347 -490 -469 -219 -183 -436 -317 -596
-366 -93 -29 -219 -36 -290 -15 -188 55 -232 254 -126 571 22 66 66 174 98
241 l58 120 219 13 c208 12 219 12 232 -6 7 -10 57 -102 110 -205 53 -104 102
-186 108 -184 15 6 446 286 461 300 10 9 8 19 -11 46 -32 48 -522 881 -537
913 -11 24 -5 34 96 169 358 475 672 815 976 1058 106 85 267 195 275 188 2
-3 -2 -29 -10 -59 -13 -52 -9 -90 10 -96 5 -2 41 25 79 58 222 194 403 330
514 386 80 40 133 43 182 10z m-672 -1323 c65 -19 127 -73 141 -122 41 -150
-74 -328 -232 -357 l-38 -7 0 244 c0 135 3 248 7 251 11 12 67 8 122 -9z
m-1759 -855 c0 -4 -9 -9 -20 -12 -23 -6 -24 -3 -8 23 9 14 14 16 20 7 4 -7 8
-15 8 -18z m1945 -40 c61 -118 -4 -253 -159 -329 -65 -32 -156 -51 -156 -32 0
11 14 30 141 192 41 53 90 119 109 148 19 28 38 52 42 52 4 0 15 -14 23 -31z"/>
<path d="M13680 16945 c-206 -72 -346 -249 -311 -392 27 -109 110 -173 236
-181 39 -2 96 1 128 8 l57 11 0 120 0 119 -35 0 -35 0 0 -94 c0 -106 0 -106
-81 -106 -163 0 -248 139 -169 276 16 29 46 66 67 83 45 37 148 91 175 91 19
0 22 17 10 56 -7 20 -10 20 -42 9z"/>
<path d="M14356 16688 c-10 -150 -19 -282 -20 -293 -1 -15 6 -21 30 -23 28 -3
32 0 38 29 3 17 6 75 7 128 1 53 4 136 8 184 l6 89 184 -231 c102 -127 186
-229 188 -228 1 2 12 113 23 248 11 134 22 260 26 281 5 34 4 36 -27 43 -21 5
-34 3 -39 -5 -4 -7 -11 -86 -15 -175 -11 -263 9 -263 -200 -1 -99 124 -183
226 -186 226 -3 0 -14 -123 -23 -272z"/>
<path d="M13973 16943 l-23 -4 0 -280 0 -279 59 0 c32 0 86 -3 120 -6 l61 -7
0 37 0 36 -85 0 -85 0 0 95 0 95 70 0 70 0 0 33 0 32 -70 -3 -70 -4 0 101 0
101 85 0 85 0 0 30 0 30 -97 -1 c-54 -1 -108 -4 -120 -6z"/>
<path d="M13002 16923 c-17 -33 -222 -540 -222 -550 0 -9 50 -37 55 -31 1 2
14 39 29 84 15 45 32 88 39 96 14 18 235 44 250 29 5 -5 30 -50 56 -101 l48
-92 28 24 27 24 -136 249 c-75 136 -143 257 -151 267 -13 19 -14 19 -23 1z
m76 -220 l49 -91 -41 -6 c-101 -13 -156 -18 -156 -13 0 5 41 118 69 191 15 37
19 32 79 -81z"/>
<path d="M14925 16892 c-17 -46 -10 -50 101 -57 l106 -8 -6 -66 c-3 -36 -11
-138 -16 -226 -6 -88 -13 -170 -16 -182 -4 -21 -1 -23 35 -23 49 0 47 -5 56
225 3 88 8 184 12 214 l6 53 56 -6 c31 -3 77 -9 104 -12 l47 -7 0 35 0 35
-132 7 c-73 4 -181 12 -240 19 -90 11 -108 10 -113 -1z"/>
<path d="M12285 16847 c-87 -47 -179 -137 -216 -212 -87 -178 20 -345 221
-345 50 0 168 26 185 40 7 6 8 40 2 112 -4 57 -9 108 -11 114 -3 6 -18 9 -36
6 l-32 -5 7 -93 7 -93 -39 -10 c-101 -28 -202 9 -243 89 -26 52 -25 94 5 157
32 69 98 132 182 174 37 19 69 34 71 35 1 0 -1 15 -4 32 -8 40 -23 40 -99 -1z"/>
<path d="M15736 16768 c-4 -35 -15 -153 -26 -263 -11 -110 -20 -207 -20 -217
0 -15 9 -18 58 -18 169 0 286 104 235 208 -10 20 -33 47 -51 58 l-32 22 35 22
c60 37 83 110 49 158 -22 32 -82 60 -164 77 -39 8 -73 15 -75 15 -2 0 -6 -28
-9 -62z m131 -18 c51 -22 71 -58 57 -98 -12 -35 -69 -72 -111 -72 -32 0 -34 2
-29 28 2 15 8 57 11 95 4 41 11 67 18 67 7 0 31 -9 54 -20z m-13 -234 c40 -17
66 -51 66 -87 0 -53 -70 -109 -136 -109 l-26 0 6 88 c4 48 10 95 12 105 6 21
33 22 78 3z"/>
<path d="M11828 16813 c-10 -2 -18 -8 -18 -11 1 -4 9 -95 19 -202 10 -107 18
-196 16 -198 -1 -1 -102 83 -225 188 -122 105 -224 189 -226 188 -2 -3 41
-561 46 -585 0 -2 10 -3 23 -3 49 0 49 2 23 226 -13 115 -22 210 -21 211 1 2
104 -86 230 -194 l228 -196 -6 74 c-3 41 -11 166 -18 279 -6 113 -13 211 -15
218 -3 12 -23 14 -56 5z"/>
<path d="M16207 16764 c-4 -4 -7 -22 -7 -39 0 -18 -13 -139 -30 -271 -16 -131
-28 -239 -27 -240 3 -2 230 -44 238 -44 4 0 9 15 11 34 l4 35 -89 12 -89 12 6
41 c3 23 9 65 12 95 l7 53 36 -6 c122 -21 111 -22 111 12 0 34 -13 42 -73 42
-67 0 -68 3 -55 109 l11 93 61 -7 c113 -13 111 -13 114 21 l3 32 -88 6 c-48 4
-102 9 -118 12 -17 3 -34 2 -38 -2z"/>
<path d="M11105 16700 c-3 -5 10 -118 30 -252 19 -134 35 -256 35 -272 0 -27
2 -28 36 -23 20 3 38 8 40 9 2 2 -12 112 -31 243 -19 132 -35 255 -35 273 0
30 -2 32 -34 32 -19 0 -37 -4 -41 -10z"/>
<path d="M16630 16669 c0 -19 -16 -142 -35 -274 -19 -132 -30 -244 -26 -248 5
-5 21 -7 37 -5 29 3 29 3 44 115 8 61 18 115 22 118 6 6 308 -32 317 -40 2 -2
-6 -61 -19 -130 -12 -70 -20 -128 -18 -129 1 -2 18 -6 35 -9 39 -8 31 -31 73
228 18 105 37 218 45 253 l13 62 -27 6 c-14 3 -32 7 -38 9 -14 5 -18 -8 -33
-120 -6 -44 -13 -87 -16 -96 -4 -13 -21 -13 -159 7 -86 11 -158 24 -162 28 -4
3 2 58 11 122 10 63 17 116 15 119 -2 2 -21 6 -41 10 -38 7 -38 7 -38 -26z"/>
<path d="M10725 16639 c-99 -15 -181 -28 -183 -28 -2 -1 9 -54 13 -59 1 -1 67
9 145 23 79 14 145 23 147 22 3 -3 -202 -468 -232 -526 -8 -17 -14 -31 -13
-31 2 0 93 16 203 35 110 19 203 35 207 35 5 0 8 16 8 35 0 19 -3 35 -7 35 -5
0 -71 -13 -148 -29 -77 -17 -141 -28 -143 -26 -4 4 171 401 214 487 13 26 24
50 24 53 0 9 -47 4 -235 -26z"/>
<path d="M10325 16551 c-18 -4 -29 -13 -29 -21 4 -30 96 -525 100 -529 8 -9
73 11 69 22 -5 13 -66 347 -85 465 -6 39 -15 71 -18 71 -4 -1 -20 -4 -37 -8z"/>
<path d="M17463 16488 c-87 -110 -313 -418 -313 -426 0 -5 11 -19 24 -31 l25
-23 56 86 c31 47 61 86 66 86 6 0 64 -10 129 -22 l118 -21 27 -106 c15 -58 31
-109 34 -112 3 -4 21 0 39 8 25 10 32 18 28 30 -4 9 -43 141 -87 292 -44 152
-84 282 -88 289 -6 10 -22 -4 -58 -50z m61 -182 c15 -54 25 -101 22 -103 -3
-3 -48 3 -100 12 l-95 17 40 57 c23 31 53 73 67 94 14 21 28 34 32 30 4 -4 19
-52 34 -107z"/>
<path d="M9933 16458 c-18 -5 -33 -12 -33 -17 0 -4 14 -73 31 -152 17 -79 41
-198 53 -264 12 -66 26 -119 32 -118 5 1 60 11 122 24 l114 22 -6 30 c-3 17
-8 33 -11 35 -2 2 -39 -5 -82 -17 -42 -11 -80 -17 -84 -13 -7 8 -89 426 -89
454 0 23 -10 27 -47 16z"/>
<path d="M17804 16448 l-30 -10 66 -299 c37 -165 69 -301 72 -304 2 -3 54 55
114 128 61 72 149 178 197 233 l86 101 -27 26 -28 27 -148 -186 c-103 -129
-151 -182 -156 -173 -7 12 -78 334 -95 432 -4 20 -10 37 -14 36 -3 -1 -20 -6
-37 -11z"/>
<path d="M9470 16353 c0 -4 -30 -139 -66 -301 -38 -166 -63 -297 -58 -302 5
-5 21 -12 35 -15 25 -6 27 -4 34 37 3 24 11 71 17 105 l10 63 111 35 c62 20
117 38 124 40 7 2 40 -31 74 -73 34 -42 66 -81 71 -86 8 -10 58 30 58 46 0 10
-277 336 -349 411 -42 44 -61 56 -61 40z m110 -199 c40 -47 70 -87 69 -88 -2
-2 -46 -17 -98 -34 l-93 -31 5 27 c3 15 13 69 23 120 10 50 19 92 20 92 1 0
34 -39 74 -86z"/>
<path d="M18416 16279 c-3 -8 -14 -59 -26 -114 -20 -92 -84 -357 -96 -397 -4
-13 4 -19 32 -27 21 -6 38 -9 39 -8 1 1 12 49 24 107 13 58 41 177 62 264 22
87 36 163 32 167 -17 16 -63 21 -67 8z"/>
<path d="M9105 16243 c-11 -3 -23 -8 -28 -12 -4 -4 9 -70 29 -147 44 -170 50
-270 18 -324 -30 -53 -78 -80 -137 -80 -46 0 -54 3 -92 43 -45 47 -72 117
-116 297 -13 52 -24 96 -25 98 0 1 -17 -4 -36 -10 l-36 -13 37 -135 c46 -167
66 -221 103 -271 94 -130 304 -92 375 70 24 55 20 168 -11 301 -35 152 -46
190 -54 189 -4 -1 -16 -3 -27 -6z"/>
<path d="M18768 16156 c-117 -32 -198 -134 -214 -268 -18 -151 94 -283 251
-296 85 -6 145 11 199 60 90 79 133 215 102 323 -40 135 -198 221 -338 181z
m186 -86 c22 -15 47 -46 63 -78 22 -44 25 -62 20 -110 -5 -63 -41 -144 -79
-179 -103 -96 -274 -51 -318 83 -32 95 17 233 100 286 40 26 52 29 111 26 50
-3 75 -10 103 -28z"/>
<path d="M8428 15999 c-82 -81 -112 -152 -88 -210 15 -36 48 -54 130 -73 96
-23 124 -59 94 -121 -13 -27 -76 -90 -112 -111 -7 -4 23 -44 34 -44 21 0 96
74 124 124 57 99 34 181 -56 205 -22 5 -58 15 -81 21 -76 19 -92 58 -49 121
13 19 40 46 60 60 42 28 42 29 18 59 l-18 23 -56 -54z"/>
<path d="M19247 15878 c-20 -73 -41 -161 -47 -196 -28 -159 52 -278 202 -298
90 -12 176 42 228 145 26 53 110 300 110 326 0 6 -15 16 -34 22 l-34 11 -12
-47 c-19 -81 -71 -234 -97 -289 -44 -94 -141 -130 -221 -82 -83 51 -93 141
-38 341 19 68 39 136 44 150 9 23 8 28 -14 38 -14 6 -31 11 -38 11 -8 0 -26
-49 -49 -132z"/>
<path d="M7897 15793 c-3 -21 -18 -131 -33 -245 -15 -115 -31 -208 -35 -208
-4 0 -80 75 -169 167 l-161 167 -24 -30 -23 -29 201 -205 c111 -113 205 -206
209 -208 10 -5 13 10 53 277 20 129 40 257 46 284 10 55 3 67 -37 67 -17 0
-23 -8 -27 -37z"/>
<path d="M8105 15808 c-11 -6 -21 -12 -22 -12 -1 -1 22 -76 51 -166 29 -91 59
-189 67 -218 13 -52 14 -53 43 -48 16 4 31 8 33 10 2 2 -18 77 -46 167 -27 90
-57 190 -66 222 -17 58 -25 65 -60 45z"/>
<path d="M19910 15767 c0 -7 -35 -124 -79 -260 l-79 -248 32 -13 c34 -14 46
-12 46 8 0 28 139 441 149 444 14 5 55 -20 94 -56 31 -30 36 -75 11 -110 -18
-26 -84 -62 -114 -62 -11 0 -20 -3 -20 -7 0 -29 97 -333 107 -333 6 0 23 4 37
10 l25 9 -38 113 c-58 175 -58 163 -6 182 65 25 105 75 105 131 0 63 -47 114
-155 165 -85 42 -115 49 -115 27z"/>
<path d="M9793 14607 c-36 -21 -295 -260 -325 -301 -19 -27 -28 -51 -28 -77 0
-32 6 -43 44 -73 74 -61 75 -61 303 146 171 156 181 173 143 248 -30 60 -89
84 -137 57z"/>
<path d="M17379 13999 c-28 -28 -49 -81 -49 -123 0 -26 12 -51 49 -99 240
-318 415 -626 550 -972 192 -489 287 -950 311 -1504 6 -130 16 -249 22 -264
14 -35 36 -47 88 -47 57 0 76 13 96 65 15 40 16 71 11 248 -25 849 -294 1717
-740 2387 -83 124 -216 297 -242 314 -33 22 -71 20 -96 -5z"/>
<path d="M9262 13944 c-55 -61 -239 -336 -346 -514 -48 -79 -132 -232 -186
-340 -263 -523 -402 -981 -455 -1496 -16 -161 -16 -162 5 -203 26 -53 59 -67
113 -49 65 21 74 43 92 218 46 455 170 884 380 1315 93 190 183 342 388 656
100 154 188 290 196 303 20 32 8 68 -38 116 -30 32 -45 40 -74 40 -29 0 -42
-7 -75 -46z"/>
<path d="M22741 10721 c-126 -134 -150 -260 -59 -307 56 -29 102 -9 171 75 59
73 91 144 82 187 -10 56 -54 94 -106 94 -39 0 -48 -5 -88 -49z"/>
<path d="M18319 10645 c-35 -19 -43 -43 -73 -215 -74 -422 -77 -448 -62 -483
16 -41 57 -59 116 -55 32 2 47 9 61 28 11 15 39 128 72 285 57 266 62 327 35
398 -20 51 -94 72 -149 42z"/>
<path d="M22386 10197 c-23 -23 -95 -112 -161 -197 -140 -182 -345 -428 -643
-773 -244 -283 -262 -308 -262 -351 0 -68 76 -137 135 -122 36 9 93 64 257
245 327 362 813 978 860 1090 l20 50 -28 38 c-40 55 -53 63 -98 63 -33 0 -46
-6 -80 -43z"/>
<path d="M3969 10060 c-61 -18 -99 -62 -99 -114 0 -12 15 -47 33 -77 36 -59
374 -523 498 -682 263 -337 579 -648 922 -905 164 -124 216 -129 275 -29 l34
56 -38 47 c-21 26 -75 74 -119 107 -253 191 -573 492 -793 747 -152 177 -330
412 -447 591 -143 219 -157 240 -174 248 -28 15 -65 19 -92 11z"/>
<path d="M5800 8054 c-47 -49 -52 -59 -46 -87 10 -53 36 -78 194 -184 126 -85
159 -103 190 -103 97 0 148 118 83 193 -59 67 -313 237 -354 237 -8 0 -38 -25
-67 -56z"/>
<path d="M12647 9526 c-92 -33 -196 -139 -251 -256 -27 -57 -31 -76 -31 -150
0 -72 3 -90 23 -117 42 -59 134 -68 228 -23 51 25 142 111 187 177 72 105 97
233 60 310 -30 63 -128 90 -216 59z"/>
<path d="M4895 16161 c-690 -398 -1384 -1008 -1961 -1726 -596 -741 -1082
-1576 -1444 -2480 -49 -125 -90 -229 -90 -233 0 -4 50 88 111 203 434 822 809
1426 1254 2020 323 432 577 726 950 1104 401 406 721 680 1168 999 137 98 163
122 136 122 -5 0 -7 5 -4 10 3 6 2 10 -4 10 -5 0 -11 7 -13 15 -2 10 -29 -1
-103 -44z"/>
<path d="M24160 10505 c-47 -25 -193 -279 -470 -815 -343 -664 -554 -1014
-856 -1415 -311 -415 -586 -687 -1039 -1027 -936 -704 -2333 -1384 -4003
-1949 -657 -222 -1365 -425 -1756 -504 -71 -15 -137 -30 -147 -36 -34 -18 -59
-61 -59 -101 0 -77 50 -128 125 -128 106 0 735 160 1265 322 1927 587 3641
1382 4706 2181 276 207 421 333 644 556 261 262 434 475 682 841 221 326 386
614 673 1170 192 373 281 535 369 674 60 97 68 133 41 186 -8 16 -25 36 -37
44 -28 20 -104 20 -138 1z"/>
<path d="M24807 9898 c-34 -26 -380 -776 -597 -1293 -281 -672 -486 -1008
-886 -1456 -218 -244 -360 -372 -759 -684 -197 -154 -455 -371 -455 -382 0 -4
15 7 33 24 54 51 261 211 487 378 312 230 386 291 574 475 362 354 610 673
829 1067 83 149 111 208 323 678 60 132 209 442 332 689 148 298 221 455 217
467 -15 45 -63 63 -98 37z"/>
<path d="M3328 7608 c-129 -134 -754 -788 -1389 -1454 -635 -665 -1323 -1387
-1529 -1603 -206 -217 -381 -405 -389 -419 -9 -18 -12 -46 -8 -90 13 -171 231
-477 581 -819 243 -238 408 -363 483 -363 40 0 89 40 98 81 11 51 -11 86 -89
136 -287 184 -726 645 -848 891 l-41 82 30 33 c16 17 156 174 310 347 154 173
340 383 414 465 307 343 2344 2632 2464 2768 127 146 160 187 152 187 -2 0
-110 -109 -239 -242z"/>
<path d="M5037 6558 c-112 -128 -461 -530 -776 -893 -315 -363 -641 -738 -725
-834 -197 -228 -196 -226 -196 -278 0 -98 70 -213 229 -377 162 -166 362 -318
439 -332 67 -13 122 35 122 107 0 39 -38 77 -139 137 -191 116 -470 399 -448
456 3 8 73 101 154 207 350 454 1338 1745 1434 1874 177 235 165 226 -94 -67z"/>
<path d="M22059 6043 l-24 -28 28 24 c15 14 27 26 27 28 0 8 -8 1 -31 -24z"/>
<path d="M6289 5521 c-105 -133 -574 -748 -1779 -2331 -563 -740 -1144 -1502
-1290 -1695 -147 -192 -319 -419 -383 -503 -76 -100 -119 -166 -123 -188 -28
-150 128 -338 461 -556 185 -122 444 -248 507 -248 17 0 41 12 60 29 28 25 33
36 33 75 0 58 -25 84 -120 120 -109 42 -305 148 -432 232 -119 80 -267 211
-303 269 l-20 33 232 324 c1975 2754 3078 4296 3221 4501 10 16 18 30 16 31
-2 2 -38 -40 -80 -93z"/>
<path d="M25158 5387 c-149 -168 -545 -561 -708 -703 -988 -863 -2164 -1492
-3615 -1933 -154 -46 -578 -160 -732 -196 -194 -46 -183 -41 -178 -76 2 -17 6
-34 9 -37 15 -14 566 91 876 168 670 166 1247 378 1845 680 331 167 558 298
830 480 651 435 1176 920 1612 1490 82 108 197 270 191 270 -2 0 -60 -64 -130
-143z"/>
</g>
</svg>
